<?xml version="1.0" encoding="utf-8"?>
<!-- Generator: Adobe Illustrator 24.1.2, SVG Export Plug-In . SVG Version: 6.00 Build 0)  -->
<svg version="1.1" id="Layer_1" xmlns="http://www.w3.org/2000/svg" xmlns:xlink="http://www.w3.org/1999/xlink" x="0px" y="0px"
	 viewBox="0 0 73.38 62.62" style="enable-background:new 0 0 73.38 62.62;" xml:space="preserve">
<style type="text/css">
	.st0{fill:#869199;}
	.st1{font-family:'MyriadPro-Regular';}
	.st2{font-size:32px;}
</style>
<g>
	<path class="st0" d="M36.57,10.87c14.1,0,22.34,6.02,24.48,17.9c0.74,4.11,0.07,7.5-2.01,10.07c-3.05,3.77-9.29,5.92-18.04,6.21
		l-7.4,0.24l3.38,4.8c-2.75-1.29-6.05-3.21-8.91-4.88l-0.06-0.04l-0.49-0.28l-0.54-0.14c-12.35-3.13-14.94-11.02-14.94-17.08
		C12.04,17.79,22.13,10.87,36.57,10.87 M36.57,6.87c-16.08,0-28.53,8.08-28.53,20.81c0,10.27,6.23,17.98,17.95,20.96
		c5.36,3.12,10.96,6.4,14.56,6.86c1.24,0.16,3.18,0.37,4.47,0.37c1.01,0,1.62-0.13,1.17-0.52c-1.73-1.47-0.18,0.63-5.06-6.3
		c20.29-0.67,25.75-10.5,23.85-20.99C62.52,14.43,52.65,6.87,36.57,6.87L36.57,6.87z"/>
</g>
<text transform="matrix(1 0 0 1 31.766 36.9982)" class="st0 st1 st2">...</text>
</svg>
