<?xml version="1.0" encoding="utf-8"?>
<!-- Generator: Adobe Illustrator 24.1.2, SVG Export Plug-In . SVG Version: 6.00 Build 0)  -->
<svg version="1.1" id="Layer_1" xmlns="http://www.w3.org/2000/svg" xmlns:xlink="http://www.w3.org/1999/xlink" x="0px" y="0px"
	 viewBox="0 0 160.7 36.87" style="enable-background:new 0 0 160.7 36.87;" xml:space="preserve">
<style type="text/css">
	.st0{fill:#0D426B;}
	.st1{clip-path:url(#SVGID_2_);}
	.st2{clip-path:url(#SVGID_4_);fill:url(#SVGID_5_);}
	.st3{fill-rule:evenodd;clip-rule:evenodd;fill:#0D426B;}
	.st4{clip-path:url(#SVGID_7_);}
	.st5{clip-path:url(#SVGID_9_);fill:url(#SVGID_10_);}
	.st6{fill:#FED307;}
	.st7{clip-path:url(#SVGID_12_);}
	.st8{clip-path:url(#SVGID_14_);fill:url(#SVGID_15_);}
	.st9{clip-path:url(#SVGID_17_);}
	.st10{clip-path:url(#SVGID_19_);fill:url(#SVGID_20_);}
	.st11{fill:#15BFF1;}
</style>
<g>
	<path class="st0" d="M101.7,17.44c-0.83,0.01-1.54,0.12-2.23,0.32c-1.11,0.34-1.97,0.96-2.61,1.81c-1.08,1.42-1.06,3.11-1.06,3.11
		v11.79h3.15c0.2,0,0.36-0.17,0.37-0.37V22.9c0-0.23,0.03-1,0.47-1.39c0.35-0.32,0.82-0.47,1.28-0.54c0.51-0.07,0.98-0.04,1.22-0.01
		c0,0,0.05,0,0.08,0c0.23,0,0.43-0.13,0.54-0.31l1.62-2.77C103.61,17.58,102.71,17.43,101.7,17.44"/>
	<path class="st0" d="M92.45,17.44c-0.83,0.01-1.53,0.12-2.23,0.32c-1.12,0.34-1.98,0.96-2.62,1.81c-1.08,1.42-1.06,3.11-1.06,3.11
		v11.79h3.15c0.2,0,0.37-0.17,0.37-0.37V22.9c0-0.23,0.03-1,0.47-1.39c0.35-0.32,0.82-0.47,1.28-0.54c0.51-0.07,0.98-0.04,1.22-0.01
		c0,0,0.05,0,0.08,0c0.22,0,0.43-0.13,0.54-0.31l1.62-2.77C94.37,17.58,93.47,17.43,92.45,17.44"/>
	<path class="st0" d="M65.01,30.11c-0.12-0.15-0.31-0.26-0.52-0.26c-0.12,0-0.23,0.03-0.33,0.09l-0.01,0.01
		c-1.07,0.65-2.33,1.02-3.67,1.02c-3.96,0-7.18-3.22-7.18-7.18c0-3.95,3.22-7.17,7.18-7.17c1.34,0,2.59,0.37,3.67,1.01
		c0.1,0.07,0.21,0.1,0.34,0.1c0.21,0,0.4-0.1,0.52-0.25l1.8-2.33c-1.77-1.31-3.97-2.08-6.33-2.08c-5.91,0-10.72,4.81-10.72,10.71
		c0,5.91,4.81,10.72,10.72,10.72c2.36,0,4.55-0.77,6.33-2.07L65.01,30.11z"/>
	<path class="st0" d="M112.67,20.58L112.67,20.58c2.32,0,4.29,1.51,4.99,3.6h-9.98C108.37,22.1,110.34,20.58,112.67,20.58
		 M112.67,17.19c-4.78,0-8.65,3.88-8.65,8.65c0,4.72,3.88,8.6,8.65,8.65c0.09,0,0.26,0,0.26,0c1.88,0,3.39-0.26,5.38-1.55l0.33-0.21
		c0,0-1.77-2.3-1.79-2.32c-0.11-0.16-0.3-0.26-0.51-0.26c-0.11,0-0.22,0.03-0.32,0.09c-0.45,0.23-1.83,0.86-3.35,0.86
		c-2.28,0-4.23-1.46-4.95-3.49h11.84l1.37,0c0.21,0,0.37-0.17,0.37-0.37l0.02-1.01c0.01-0.13,0.01-0.26,0.01-0.39
		C121.32,21.07,117.44,17.19,112.67,17.19z"/>
	<path class="st0" d="M123.7,34.51c-0.19,0-0.35-0.16-0.36-0.35V18.11c0-0.19,0.16-0.35,0.35-0.36h2.8c0.2,0,0.37,0.17,0.37,0.37
		v16.03c0,0.2-0.16,0.36-0.37,0.36H123.7z"/>
	<path class="st0" d="M76.13,20.53L76.13,20.53c-2.88,0-5.22,2.34-5.22,5.22c0,2.88,2.34,5.22,5.22,5.22c2.88,0,5.22-2.34,5.22-5.22
		C81.35,22.88,79.01,20.53,76.13,20.53 M76.13,34.51c-4.83,0-8.76-3.93-8.76-8.76c0-4.82,3.93-8.76,8.76-8.76
		c4.82,0,8.75,3.93,8.75,8.76C84.88,30.58,80.95,34.51,76.13,34.51z"/>
	<path class="st0" d="M137.26,20.67L137.26,20.67c-2.85,0-5.17,2.31-5.17,5.16c0,2.84,2.32,5.16,5.17,5.16
		c2.85,0,5.17-2.32,5.17-5.16C142.43,22.98,140.11,20.67,137.26,20.67 M137.26,34.49c-4.78,0-8.67-3.88-8.67-8.66
		c0-4.78,3.88-8.67,8.67-8.67c4.78,0,8.66,3.89,8.66,8.67C145.93,30.6,142.05,34.49,137.26,34.49z"/>
	<path class="st0" d="M155.77,24.5c-0.61-0.27-1.38-0.45-2.22-0.66c-1.24-0.31-2.4-0.38-2.84-1.05c-0.4-0.62-0.18-1.35,0.36-1.72
		c1.22-0.85,2.88-0.51,3.8-0.09c0.16,0.07,0.84,0.47,0.84,0.47c0.1,0.06,0.21,0.09,0.33,0.09c0.22,0,0.4-0.1,0.52-0.26
		c0.01-0.02,1.75-2.27,1.75-2.27l-0.3-0.23c-0.17-0.12-0.41-0.29-0.66-0.44c-0.52-0.29-2.1-1.21-4.4-1.21c-0.07,0-0.13,0-0.2,0
		c-5.04,0.12-5.75,3.68-5.75,4.94c0,1.92,0.98,3.29,2.46,4.14c1.19,0.68,3.43,1.05,4.56,1.4c0.6,0.18,1.04,0.59,1.2,1
		c0.07,0.18,0.11,0.36,0.12,0.56c0.02,0.65-0.33,1.42-1.31,1.72c-1.09,0.33-2.8,0.19-4.35-1.02c-0.05-0.04-0.22-0.18-0.28-0.2
		c-0.08-0.03-0.15-0.04-0.24-0.04c-0.22,0-0.39,0.12-0.52,0.29c-0.02,0.03-1.72,2.22-1.72,2.22s0.6,0.5,0.8,0.65
		c0.97,0.74,2.73,1.73,5.04,1.73h0.08c4.86-0.01,6.01-3.46,6.01-5.36C158.85,27.22,157.66,25.35,155.77,24.5"/>
	<g>
		<defs>
			<path id="SVGID_1_" d="M13.03,34.51h-1.39c-1.14,0-2.16-0.53-2.81-1.37L2.1,24.52c-0.16-0.2-0.25-0.46-0.25-0.73
				s0.09-0.53,0.25-0.73l6.73-8.61c0.65-0.83,1.67-1.37,2.81-1.37h14.89L18.09,23.7l-6.19,7.79L13.03,34.51z"/>
		</defs>
		<clipPath id="SVGID_2_">
			<use xlink:href="#SVGID_1_"  style="overflow:visible;"/>
		</clipPath>
		<g class="st1">
			<defs>
				<rect id="SVGID_3_" x="0.76" y="12.53" width="26.11" height="22.38"/>
			</defs>
			<clipPath id="SVGID_4_">
				<use xlink:href="#SVGID_3_"  style="overflow:visible;"/>
			</clipPath>
			
				<linearGradient id="SVGID_5_" gradientUnits="userSpaceOnUse" x1="-351.8039" y1="311.6385" x2="-351.0471" y2="311.6385" gradientTransform="matrix(-27.4644 21.4575 -21.1558 -27.0782 -3042.2173 16000.9297)">
				<stop  offset="0" style="stop-color:#FEDC00"/>
				<stop  offset="0.9" style="stop-color:#CE992B"/>
				<stop  offset="1" style="stop-color:#FEDC00"/>
			</linearGradient>
			<polygon class="st2" points="16.97,-0.14 -10.1,21.01 10.66,47.57 37.72,26.43 			"/>
		</g>
	</g>
	<path class="st3" d="M18.16,23.79l-0.07-0.09l-6.19,7.79c-0.24,0.31-0.46,0.73-0.46,1.44c0,0.7,0.68,1.58,2.01,1.58h13.08
		L18.16,23.79z"/>
	<g>
		<defs>
			<path id="SVGID_6_" d="M18.16,23.79l-0.07-0.09l-6.19,7.79c-0.24,0.31-0.46,0.73-0.46,1.44c0,0.7,0.68,1.58,2.01,1.58h13.08
				L18.16,23.79z"/>
		</defs>
		<clipPath id="SVGID_7_">
			<use xlink:href="#SVGID_6_"  style="overflow:visible;"/>
		</clipPath>
		<g class="st4">
			<defs>
				<rect id="SVGID_8_" x="11.25" y="21.38" width="15.59" height="13.36"/>
			</defs>
			<clipPath id="SVGID_9_">
				<use xlink:href="#SVGID_8_"  style="overflow:visible;"/>
			</clipPath>
			
				<linearGradient id="SVGID_10_" gradientUnits="userSpaceOnUse" x1="-365.9548" y1="316.8033" x2="-364.9376" y2="316.8033" gradientTransform="matrix(-13.4323 0 0 -20.232 -4889.8848 6437.6235)">
				<stop  offset="0" style="stop-color:#CE992B"/>
				<stop  offset="1" style="stop-color:#A66027"/>
			</linearGradient>
			<rect x="11.25" y="21.38" class="st5" width="15.59" height="13.36"/>
		</g>
	</g>
	<path class="st6" d="M11.57,31.62c-0.24,0.31-0.38,0.69-0.38,1.11c0,0.98,0.8,1.78,1.78,1.78h0.46c-0.99,0-1.78-0.8-1.78-1.78
		c0-0.42,0.14-0.8,0.38-1.11l6.12-7.81l8.37-10.71L11.57,31.62z"/>
	<g>
		<defs>
			<path id="SVGID_11_" d="M35.81,5.38l-1.14-3.02h1.4c1.14,0,2.16,0.54,2.81,1.37l6.73,8.61c0.16,0.2,0.25,0.46,0.25,0.73
				c0,0.27-0.09,0.53-0.25,0.73l-6.73,8.61c-0.65,0.84-1.67,1.37-2.81,1.37H21.17l8.44-10.62L35.81,5.38z"/>
		</defs>
		<clipPath id="SVGID_12_">
			<use xlink:href="#SVGID_11_"  style="overflow:visible;"/>
		</clipPath>
		<g class="st7">
			<defs>
				<rect id="SVGID_13_" x="21.01" y="2.05" width="26.08" height="22.35"/>
			</defs>
			<clipPath id="SVGID_14_">
				<use xlink:href="#SVGID_13_"  style="overflow:visible;"/>
			</clipPath>
			
				<linearGradient id="SVGID_15_" gradientUnits="userSpaceOnUse" x1="-339.3248" y1="321.1516" x2="-338.5677" y2="321.1516" gradientTransform="matrix(27.538 -21.4742 21.1338 27.1015 2578.0554 -15966.9287)">
				<stop  offset="0" style="stop-color:#0D426B"/>
				<stop  offset="0.9" style="stop-color:#1AAFE6"/>
				<stop  offset="1" style="stop-color:#1383C6"/>
			</linearGradient>
			<polygon class="st8" points="30.87,37.05 57.92,15.95 37.22,-10.6 10.17,10.5 			"/>
		</g>
	</g>
	<path class="st3" d="M29.54,13.08l0.08,0.09l6.19-7.79c0.24-0.31,0.46-0.73,0.46-1.44c0-0.7-0.69-1.58-2.01-1.58H21.17L29.54,13.08
		z"/>
	<g>
		<defs>
			<path id="SVGID_16_" d="M29.54,13.08l0.08,0.09l6.19-7.79c0.24-0.31,0.46-0.73,0.46-1.44c0-0.7-0.69-1.58-2.01-1.58H21.17
				L29.54,13.08z"/>
		</defs>
		<clipPath id="SVGID_17_">
			<use xlink:href="#SVGID_16_"  style="overflow:visible;"/>
		</clipPath>
		<g class="st9">
			<defs>
				<rect id="SVGID_18_" x="20.9" y="2.16" width="15.32" height="13.13"/>
			</defs>
			<clipPath id="SVGID_19_">
				<use xlink:href="#SVGID_18_"  style="overflow:visible;"/>
			</clipPath>
			
				<linearGradient id="SVGID_20_" gradientUnits="userSpaceOnUse" x1="-354.9635" y1="309.2521" x2="-354.4668" y2="309.2521" gradientTransform="matrix(-18.2147 14.2309 -13.9838 -17.8984 -2105.126 10589.5479)">
				<stop  offset="0" style="stop-color:#0E2547"/>
				<stop  offset="1" style="stop-color:#0D426B"/>
			</linearGradient>
			<polygon class="st10" points="30.41,-5.27 14.53,7.14 26.7,22.72 42.58,10.31 			"/>
		</g>
	</g>
	<path class="st11" d="M36.14,5.25c0.24-0.31,0.38-0.69,0.38-1.11c0-0.98-0.8-1.78-1.79-1.78h-0.46c0.99,0,1.79,0.8,1.79,1.78
		c0,0.42-0.14,0.8-0.38,1.11l-6.12,7.81l-8.36,10.71L36.14,5.25z"/>
</g>
</svg>
